<svg width="27" height="27" viewBox="0 0 27 27" fill="none" xmlns="http://www.w3.org/2000/svg">
  <!-- Background Rectangle -->
  <rect width="27" height="27" rx="3" fill="white"/>
  
  <!-- GitHub Logo Path -->
  <path d="M13.5 0C6.0375 0 0 6.0375 0 13.5C0 19.575 3.3375 24.375 8.025 26.25C8.625 26.3625 9 26.0625 9 25.4625V22.575C5.175 23.7 4.425 21 4.425 21C3.8625 19.425 3 19.0125 3 19.0125C2.025 18.2625 3.075 18.275 3.075 18.275C4.1625 18.3375 4.875 19.325 4.875 19.325C5.7375 20.5125 6.8375 20.025 7.0625 19.875C7.95 19.425 8.925 19.1375 9.9375 19.975C10.725 20.625 11.8875 20.55 12.375 20.5375C12.8625 20.525 13.5 20.625 13.9875 19.975C14.9875 19.1375 16.05 19.425 16.9375 19.875C17.175 20.025 18.2625 20.5125 19.125 19.325C19.125 19.325 19.8375 18.3375 20.925 18.275C20.925 18.275 21.975 18.2625 21 19.0125C21 19.0125 20.1375 19.425 19.575 21C19.575 21 18.825 23.7 15 22.575V25.4625C15 26.0625 15.375 26.3625 15.975 26.25C20.6625 24.375 24 19.575 24 13.5C24 6.0375 17.9625 0 13.5 0Z" fill="#0F1624"/>
</svg>
